<mxfile host="app.diagrams.net" agent="Mozilla/5.0 (Windows NT 10.0; Win64; x64) AppleWebKit/537.36 (KHTML, like Gecko) Chrome/131.0.0.0 Safari/537.36 Edg/131.0.0.0" version="24.8.6">
  <diagram name="第 1 页" id="nFsAOjWybpd1lJpETCGC">
    <mxGraphModel dx="1221" dy="668" grid="1" gridSize="10" guides="1" tooltips="1" connect="1" arrows="1" fold="1" page="1" pageScale="1" pageWidth="827" pageHeight="1169" math="0" shadow="0">
      <root>
        <mxCell id="0" />
        <mxCell id="1" parent="0" />
        <mxCell id="9mX1B9m7YYr3MZhmCGJs-9" style="edgeStyle=orthogonalEdgeStyle;rounded=0;orthogonalLoop=1;jettySize=auto;html=1;entryX=0.5;entryY=0;entryDx=0;entryDy=0;" edge="1" parent="1" source="9mX1B9m7YYr3MZhmCGJs-1" target="9mX1B9m7YYr3MZhmCGJs-2">
          <mxGeometry relative="1" as="geometry" />
        </mxCell>
        <mxCell id="9mX1B9m7YYr3MZhmCGJs-1" value="&lt;font face=&quot;SimSun&quot; style=&quot;font-size: 14px;&quot;&gt;SCADA系统数据采集与监测&lt;/font&gt;" style="rounded=0;whiteSpace=wrap;html=1;" vertex="1" parent="1">
          <mxGeometry x="320" y="240" width="180" height="50" as="geometry" />
        </mxCell>
        <mxCell id="9mX1B9m7YYr3MZhmCGJs-10" style="edgeStyle=orthogonalEdgeStyle;rounded=0;orthogonalLoop=1;jettySize=auto;html=1;entryX=0.5;entryY=0;entryDx=0;entryDy=0;" edge="1" parent="1" source="9mX1B9m7YYr3MZhmCGJs-2" target="9mX1B9m7YYr3MZhmCGJs-3">
          <mxGeometry relative="1" as="geometry" />
        </mxCell>
        <mxCell id="9mX1B9m7YYr3MZhmCGJs-2" value="&lt;font face=&quot;SimSun&quot; style=&quot;font-size: 14px;&quot;&gt;结冰诊断模型&lt;/font&gt;" style="rounded=0;whiteSpace=wrap;html=1;" vertex="1" parent="1">
          <mxGeometry x="320" y="330" width="180" height="50" as="geometry" />
        </mxCell>
        <mxCell id="9mX1B9m7YYr3MZhmCGJs-7" style="edgeStyle=orthogonalEdgeStyle;rounded=0;orthogonalLoop=1;jettySize=auto;html=1;entryX=0.5;entryY=0;entryDx=0;entryDy=0;" edge="1" parent="1" source="9mX1B9m7YYr3MZhmCGJs-3" target="9mX1B9m7YYr3MZhmCGJs-4">
          <mxGeometry relative="1" as="geometry" />
        </mxCell>
        <mxCell id="9mX1B9m7YYr3MZhmCGJs-8" style="edgeStyle=elbowEdgeStyle;rounded=0;orthogonalLoop=1;jettySize=auto;html=1;exitX=1;exitY=0.5;exitDx=0;exitDy=0;" edge="1" parent="1" source="9mX1B9m7YYr3MZhmCGJs-3" target="9mX1B9m7YYr3MZhmCGJs-6">
          <mxGeometry relative="1" as="geometry">
            <mxPoint x="450" y="470" as="sourcePoint" />
            <mxPoint x="660" y="800" as="targetPoint" />
            <Array as="points">
              <mxPoint x="560" y="630" />
            </Array>
          </mxGeometry>
        </mxCell>
        <mxCell id="9mX1B9m7YYr3MZhmCGJs-3" value="&lt;font face=&quot;SimSun&quot;&gt;叶片是否结冰&lt;/font&gt;" style="rhombus;whiteSpace=wrap;html=1;" vertex="1" parent="1">
          <mxGeometry x="320" y="430" width="180" height="60" as="geometry" />
        </mxCell>
        <mxCell id="9mX1B9m7YYr3MZhmCGJs-11" style="edgeStyle=orthogonalEdgeStyle;rounded=0;orthogonalLoop=1;jettySize=auto;html=1;entryX=0.5;entryY=0;entryDx=0;entryDy=0;" edge="1" parent="1" source="9mX1B9m7YYr3MZhmCGJs-4" target="9mX1B9m7YYr3MZhmCGJs-5">
          <mxGeometry relative="1" as="geometry" />
        </mxCell>
        <mxCell id="9mX1B9m7YYr3MZhmCGJs-4" value="&lt;font style=&quot;font-size: 14px;&quot; face=&quot;SimSun&quot;&gt;除冰操作&lt;/font&gt;" style="rounded=0;whiteSpace=wrap;html=1;" vertex="1" parent="1">
          <mxGeometry x="320" y="540" width="180" height="50" as="geometry" />
        </mxCell>
        <mxCell id="9mX1B9m7YYr3MZhmCGJs-12" style="edgeStyle=orthogonalEdgeStyle;rounded=0;orthogonalLoop=1;jettySize=auto;html=1;entryX=0.5;entryY=0;entryDx=0;entryDy=0;" edge="1" parent="1" source="9mX1B9m7YYr3MZhmCGJs-5" target="9mX1B9m7YYr3MZhmCGJs-6">
          <mxGeometry relative="1" as="geometry" />
        </mxCell>
        <mxCell id="9mX1B9m7YYr3MZhmCGJs-5" value="&lt;font style=&quot;font-size: 14px;&quot; face=&quot;SimSun&quot;&gt;除冰操作&lt;/font&gt;" style="rounded=0;whiteSpace=wrap;html=1;" vertex="1" parent="1">
          <mxGeometry x="320" y="640" width="180" height="50" as="geometry" />
        </mxCell>
        <mxCell id="9mX1B9m7YYr3MZhmCGJs-6" value="&lt;font style=&quot;font-size: 14px;&quot; face=&quot;SimSun&quot;&gt;风机正常运行&lt;/font&gt;" style="rounded=0;whiteSpace=wrap;html=1;" vertex="1" parent="1">
          <mxGeometry x="320" y="750" width="180" height="50" as="geometry" />
        </mxCell>
        <mxCell id="9mX1B9m7YYr3MZhmCGJs-13" value="&lt;font style=&quot;font-size: 14px;&quot;&gt;Yes&lt;/font&gt;" style="text;html=1;align=center;verticalAlign=middle;resizable=0;points=[];autosize=1;strokeColor=none;fillColor=none;fontFamily=Times New Roman;" vertex="1" parent="1">
          <mxGeometry x="340" y="500" width="40" height="30" as="geometry" />
        </mxCell>
        <mxCell id="9mX1B9m7YYr3MZhmCGJs-14" value="&lt;font style=&quot;font-size: 14px;&quot;&gt;No&lt;/font&gt;" style="text;html=1;align=center;verticalAlign=middle;resizable=0;points=[];autosize=1;strokeColor=none;fillColor=none;fontFamily=Times New Roman;" vertex="1" parent="1">
          <mxGeometry x="440" y="440" width="40" height="30" as="geometry" />
        </mxCell>
        <mxCell id="9mX1B9m7YYr3MZhmCGJs-15" value="&lt;font style=&quot;font-size: 14px;&quot; face=&quot;SimSun&quot;&gt;保养与维护&lt;/font&gt;" style="text;html=1;align=center;verticalAlign=middle;resizable=0;points=[];autosize=1;strokeColor=none;fillColor=none;textDirection=vertical-lr;" vertex="1" parent="1">
          <mxGeometry x="530" y="610" width="90" height="30" as="geometry" />
        </mxCell>
      </root>
    </mxGraphModel>
  </diagram>
</mxfile>
